<?xml version="1.0" encoding="UTF-8"?>
<svg id="Layer_2" xmlns="http://www.w3.org/2000/svg" version="1.1" viewBox="0 0 1213.8 119">
  <!-- Generator: Adobe Illustrator 29.2.1, SVG Export Plug-In . SVG Version: 2.1.0 Build 116)  -->
  <defs>
    <style>
      .st0 {
        fill: #fff;
      }
    </style>
  </defs>
  <g id="Ebene_1">
    <g>
      <path class="st0" d="M1173.5,49.7c-19.1-3.1-28.5-7.4-28.5-17s4.3-14.5,21.5-14.5,22.2,7.1,22.2,15.9h20.8C1209.5,13.7,1195.1,0,1166.7,0s-42.6,14.1-42.6,32.6,23.3,30.4,42.4,34.4c15.8,3,26.2,6.9,26.2,17.5s-8.3,17-25.3,17-25.3-8.5-25.3-19.2h-20.8c0,17.8,13.4,36.7,46.2,36.7s46.3-12.4,46.3-34.5-19.4-31-40.3-34.9h0Z"/>
      <path class="st0" d="M217.7,71c0,16.1-10.3,28.9-27.8,28.9s-27.9-12.9-27.9-28.9V2.7h-20.7v69.8c0,28.4,21.2,46.5,48.6,46.5s48.6-19.3,48.6-46.5V2.7h-20.8v68.3h0Z"/>
      <path class="st0" d="M869.6,116.4h20.8V2.7h-26.4l-80.5,113.8h24.8l15.8-22h45.5v22h0ZM836.6,77l29.6-41.2,3-5.9h.5v47.1h-33.1Z"/>
      <polygon class="st0" points="717.4 49.8 660.1 49.8 660.1 2.7 639.2 2.7 639.2 116.4 660.1 116.4 660.1 68.4 717.4 68.4 717.4 116.4 738.3 116.4 738.3 2.7 717.4 2.7 717.4 49.8"/>
      <polygon class="st0" points="574.2 2.7 549.9 2.7 502.4 62.6 502.4 2.7 481.6 2.7 481.6 116.4 502.4 116.4 502.4 90.2 520 68.2 555.3 116.4 580 116.4 533.6 53 574.2 2.7"/>
      <polygon class="st0" points="389.5 82.3 327.5 2.7 309.6 2.7 309.6 116.4 330.4 116.4 330.4 36.9 392.4 116.4 410.2 116.4 410.2 2.7 389.5 2.7 389.5 82.3"/>
      <path class="st0" d="M1058.5,72.4V2.7h-20.8v68.3c0,16.1-10.3,28.9-27.8,28.9s-27.8-12.9-27.8-28.9V2.7h-20.7v69.8c0,28.4,21.2,46.5,48.6,46.5s48.6-19.3,48.6-46.5h0Z"/>
      <polygon class="st0" points="0 116.6 20.8 116.6 20.8 71.9 70.2 71.9 70.2 54.3 20.8 54.3 20.8 21.5 77.9 21.5 77.9 2.8 0 2.8 0 116.6"/>
    </g>
  </g>
</svg>
